<?xml version="1.0" encoding="utf-8"?>
<!-- Generator: Adobe Illustrator 19.1.0, SVG Export Plug-In . SVG Version: 6.00 Build 0)  -->
<svg version="1.1" id="Layer_1" xmlns="http://www.w3.org/2000/svg" xmlns:xlink="http://www.w3.org/1999/xlink" x="0px" y="0px"
	 viewBox="-333 229.332 412 343.337" enable-background="new -333 229.332 412 343.337" xml:space="preserve">
<path id="Basecamp" d="M-331.27,493.3c2.899,4.278,6.028,8.387,9.366,12.325c6.67,7.859,14.187,14.985,22.317,21.307
	c17.305,13.438,37.264,23.076,58.002,29.862c23.986,7.863,49.077,12.057,74.172,14.145c29.11,2.423,58.617,2.388,87.657-0.661
	c26.913-2.835,53.718-8.423,78.932-18.445c22.316-8.87,42.84-21.534,60.785-37.553c4.636-4.157,9.129-8.592,12.825-13.635
	c3.125-4.265,5.629-8.977,6.08-14.323c0.51-6.268-0.519-12.643-1.757-18.758c-1.372-6.777-3.179-13.457-4.886-20.153
	c-0.631-2.441-1.234-4.882-1.784-7.332c-6.585-29.022-16.635-57.275-30.287-83.71c-11.57-22.393-25.845-43.538-42.416-62.52
	c-15.478-17.73-33.484-33.233-54.165-44.535c-10.979-5.99-22.594-10.774-34.557-14.368c-6.465-1.944-13.036-3.541-19.661-4.833
	c-1.699-0.335-3.416-0.764-5.15-0.764c-2.182,0-4.372,0-6.563,0c-4.216,0-8.427,0-12.638,0c-1.922,0-3.862-0.089-5.776,0.143
	c-1.764,0.21-3.525,0.465-5.289,0.751c-3.355,0.545-6.692,1.216-10.007,2.012c-6.569,1.574-13.027,3.639-19.317,6.106
	c-12.575,4.944-24.492,11.525-35.607,19.192c-21.72,14.98-40.585,34.043-56.467,55.081c-16.836,22.316-30.285,47.128-40.677,73.065
	c-11.047,27.583-18.673,56.489-23.39,85.825c-0.598,3.773-1.472,7.685-1.472,11.499c0,2.047,0,4.104,0,6.138
	c0,0.988-0.022,1.511,0.516,2.329C-332.079,492.088-331.686,492.688-331.27,493.3z M-304.42,475.11
	c0.346-1.94,0.755-3.871,1.202-5.789c0.856-3.599,1.887-7.157,3.091-10.667c4.614-13.487,11.585-26.005,19.067-38.084
	c3.722-5.995,7.526-11.928,11.311-17.873c3.864-6.075,7.805-12.115,12.242-17.783c7.195-9.21,16.049-19.144,27.525-22.85
	c16.127-5.208,28.191,11.584,37.521,21.946c5.309,5.883,11.026,12.074,18.338,15.432c3.368,1.547,7.041,2.343,10.749,2.115
	c5.405-0.345,10.2-4.055,14.219-7.395c11.013-9.138,19.999-20.685,28.575-32.058c9.393-12.455,18.463-25.165,29.201-36.506
	c4.403-4.649,9.093-10.814,15.405-12.871c2.879-0.934,6.018-0.648,8.763,0.612c1.502,0.693,2.869,1.667,4.063,2.821
	c1.35,1.31,2.955,2.338,4.461,3.473c11.521,8.722,22.179,18.571,32.251,28.933c8.762,9.013,17.081,18.437,25.048,28.173
	c7.756,9.505,15.227,19.188,21.646,29.685c7.806,12.785,14.404,26.232,21.674,39.322c6.634,11.937,13.34,25.741,6.719,39.206
	c-0.349,0.711-0.729,1.422-1.136,2.102c-11.753,19.894-32.97,32.276-53.909,40.386c-25.228,9.755-52.386,14.404-79.262,16.282
	c-27.784,1.949-55.906,1.859-83.643-0.742c-25.066-2.352-50.309-6.813-73.893-15.924c-19.712-7.613-38.714-18.866-51.9-35.755
	c-3.076-3.943-5.803-8.154-8.125-12.589c-0.275-0.528-0.547-1.069-0.822-1.614C-304.429,476.312-304.577,475.99-304.42,475.11z"/>
</svg>
