<?xml version="1.0" encoding="utf-8"?>
<!-- Generator: Adobe Illustrator 19.1.0, SVG Export Plug-In . SVG Version: 6.00 Build 0)  -->
<svg version="1.1" id="Layer_1" xmlns="http://www.w3.org/2000/svg" xmlns:xlink="http://www.w3.org/1999/xlink" x="0px" y="0px"
	 viewBox="0 0 28.812 28.811" enable-background="new 0 0 28.812 28.811" xml:space="preserve">
<path d="M26.644,16.03l-0.372-0.17c-1.348-0.615-1.314-1.543,0.074-2.06l0.715-0.267c1.388-0.518,2.101-2.078,1.583-3.466
	L28.006,8.36c-0.518-1.389-2.078-2.101-3.466-1.583l-0.713,0.266c-1.389,0.518-2.021-0.161-1.406-1.509l0.169-0.371
	c0.615-1.348,0.016-2.954-1.332-3.57L19.6,0.836c-1.348-0.616-2.955-0.016-3.57,1.331L15.86,2.539
	c-0.615,1.348-1.543,1.314-2.06-0.074l-0.267-0.713c-0.518-1.389-2.078-2.101-3.466-1.583L8.361,0.806
	C6.972,1.323,6.26,2.884,6.778,4.272l0.266,0.713c0.518,1.389-0.161,2.021-1.509,1.406L5.164,6.222
	c-1.348-0.616-2.955-0.017-3.57,1.332L0.837,9.211c-0.615,1.348-0.016,2.955,1.332,3.57l0.37,0.169
	c1.348,0.615,1.314,1.543-0.074,2.061l-0.713,0.266c-1.388,0.518-2.101,2.078-1.583,3.467l0.637,1.708
	c0.518,1.389,2.077,2.101,3.466,1.582l0.714-0.266c1.389-0.518,2.021,0.161,1.405,1.509l-0.17,0.372
	c-0.615,1.348-0.016,2.954,1.332,3.57l1.659,0.757c1.348,0.616,2.955,0.016,3.57-1.331l0.169-0.371
	c0.615-1.348,1.543-1.314,2.061,0.074l0.266,0.713c0.518,1.388,2.078,2.101,3.467,1.582l1.707-0.636
	c1.389-0.518,2.101-2.078,1.584-3.467l-0.265-0.712c-0.517-1.388,0.162-2.021,1.509-1.405l0.369,0.168
	c1.348,0.616,2.954,0.017,3.57-1.332l0.757-1.658C28.591,18.252,27.992,16.645,26.644,16.03z M12.117,19.376
	c-2.721-1.243-3.92-4.456-2.678-7.177c1.242-2.721,4.456-3.92,7.177-2.677c2.721,1.243,3.92,4.456,2.677,7.177
	C18.051,19.42,14.838,20.619,12.117,19.376z"/>
</svg>
